<svg version="1.2" xmlns="http://www.w3.org/2000/svg" viewBox="0 0 44 57" width="44" height="57">
	<style>
		.s0 { fill: #00b45e } 
		.s1 { fill: #029835 } 
		.s2 { fill: #ffffff } 
	</style>
	<g id="Layer_x0020_1">
		<g id="Grab_x0020_Food.cdr">
			<g>
				<path fill-rule="evenodd" class="s0" d="m35.01 44.92v-5.34h1.09v4.59c-0.3 0.15-0.72 0.43-1.09 0.75zm-1.91-5.34h1.1v5.79c-0.41 0.34-0.76 0.75-1.1 1.15zm-12.66 10.22c0-1.44 0.57-2.79 1.59-3.82 1.04-1.03 2.39-1.59 3.81-1.59 1.39 0 2.71 0.53 3.73 1.51 1.01 0.98 1.61 2.28 1.68 3.68v6.6h-1.1v-6.39c0-1.16-0.44-2.25-1.25-3.06-0.81-0.8-1.89-1.25-3.06-1.25-2.33 0-4.3 1.97-4.3 4.31v0.98c0 2.34 1.97 4.31 4.3 4.31 0.53 0 1.16-0.13 1.67-0.35v1.1c-0.44 0.22-1.06 0.34-1.67 0.34-1.43 0-2.78-0.57-3.81-1.6-1.03-1.03-1.59-2.39-1.59-3.81zm23.54-0.03v0.98c0 1.43-0.57 2.78-1.6 3.82-1.03 1.02-2.38 1.59-3.81 1.59-2.23 0-4.27-1.38-4.83-3.27l0.77-0.93c0.45 1.79 2.15 3.11 4.06 3.11 1.14 0 2.22-0.45 3.03-1.25 0.83-0.82 1.28-1.9 1.28-3.06v-0.98c0-2.33-1.97-4.31-4.31-4.31-0.91 0-1.91 0.35-2.61 0.92-1.08 0.85-2.49 2.38-3.99 4.33v-1.64c1.77-2.28 2.74-3.15 3.94-3.94 0.58-0.38 1.62-0.77 2.66-0.77 1.43 0 2.79 0.57 3.81 1.6 1.03 1.02 1.6 2.38 1.6 3.8zm-36.52-7.58c1.52 0 2.6 0.17 3.51 0.56v1.23c-0.87-0.53-1.94-0.76-3.5-0.76-1.66 0-3.25 0.63-4.47 1.77-1.2 1.12-1.88 2.63-1.88 4.16v0.35c0 1.61 0.6 3.1 1.68 4.21 1.1 1.11 2.58 1.72 4.17 1.72 2.45 0 3.71-0.88 4.24-1.41v-4.47h-4.5v-1.09h5.59v5.89c-0.03 0.05-0.45 0.6-1.37 1.16q-1.7 1.01-3.96 1.01c-1.87 0-3.62-0.73-4.93-2.04-1.3-1.32-2.02-3.09-2.02-4.99v-0.35c0-3.77 3.4-6.95 7.44-6.95zm7.18 7.59v6.39h-1.09v-6.39c0-1.51 0.53-2.88 1.51-3.86 0.98-1 2.36-1.55 3.89-1.55 1.06 0 2.1 0.28 2.71 0.76q-0.33 0.31-0.75 0.82-0.86-0.49-1.97-0.49c-2.54 0-4.31 1.78-4.3 4.32zm-7.17-4.68c-2.41 0-4.45 1.85-4.45 4.03v0.35c0 1.1 0.4 2.11 1.15 2.86 0.74 0.76 1.74 1.17 2.8 1.17 1.34 0 2.06-0.28 2.4-0.42h0.01v-1.65h-2.67v-1.09h3.7v3.29c-0.24 0.24-1.17 0.98-3.44 0.98-2.79 0-5.05-2.3-5.05-5.13v-0.35c0-1.36 0.58-2.64 1.64-3.62 1.05-0.97 2.44-1.5 3.9-1.5 1.43 0 2.51 0.23 3.5 0.76v1.3c-0.84-0.69-1.83-0.97-3.49-0.98zm21.87 11.07h-1.11v-6.39c0-1.35-1.06-2.41-2.41-2.41-1.35 0-2.41 1.05-2.41 2.41v0.98c0 1.35 1.06 2.41 2.41 2.41 0.62 0 1.24-0.2 1.67-0.55v1.14c-0.44 0.36-1.15 0.49-1.67 0.49-1.89 0-3.5-1.6-3.5-3.5v-0.99c0-0.91 0.37-1.78 1.04-2.46 0.68-0.67 1.55-1.04 2.47-1.04 1.97 0 3.51 1.54 3.51 3.51zm-12.81-6.4v6.39h-1.09v-6.39c0-2 1.5-3.51 3.5-3.51 0.52 0 1.23 0.14 1.53 0.35-0.2 0.33-0.35 0.62-0.48 0.96q-0.43-0.21-1.05-0.21c-1.42 0-2.41 1-2.41 2.41zm17.89 0.98c-0.92 1.06-1.48 1.75-2.44 3v-1.71c0.87-1.17 1.89-2.32 2.6-3.09 0.42-0.49 1.11-1.18 1.4-1.48 1.1-0.98 2.01-1.19 2.59-1.19 0.92 0 1.8 0.37 2.47 1.04 0.67 0.67 1.04 1.54 1.04 2.46v0.98c0 1.93-1.57 3.5-3.51 3.5-0.79 0-1.58-0.32-2.21-0.89-0.61-0.55-1.04-1.35-1.22-2.18l0.88-1.09c0.05 0.7 0.33 1.48 0.77 2.05 0.5 0.65 1.13 1.01 1.78 1.01 1.35 0 2.41-1.05 2.41-2.41v-0.98c0-1.35-1.05-2.41-2.41-2.41-0.63 0-1.27 0.28-1.76 0.78-0.58 0.5-1.59 1.66-2.39 2.61z"/>
				<g>
					<path fill-rule="evenodd" class="s1" d="m22 0.48c11.19 0 20.26 9.07 20.26 20.26 0 11.19-9.07 20.26-20.26 20.26-11.19 0-20.26-9.07-20.26-20.26 0-11.19 9.07-20.26 20.26-20.26z"/>
					<path fill-rule="evenodd" class="s2" d="m13.71 13.07h16.94v12.51h-16.94zm11.73 10.14c0.13-0.18 0.06-0.35-0.11-0.52l-2.62-2.63 0.86-0.85c0.4 0.02 0.86 0.02 1.05-0.03 0.17-0.04 0.26-0.13 0.48-0.37l2.14-2.41c0.44-0.42 0.13-0.73-0.29-0.28l-1.5 1.6c-0.17 0.18-0.33 0.3-0.53 0.09-0.21-0.21-0.1-0.33 0.07-0.5l1.66-1.66c0.14-0.13 0.16-0.29 0.07-0.37-0.08-0.09-0.24-0.07-0.38 0.07l-1.65 1.66c-0.17 0.16-0.29 0.28-0.5 0.07-0.21-0.2-0.09-0.36 0.09-0.53l1.59-1.5c0.45-0.42 0.15-0.73-0.27-0.29l-2.41 2.13c-0.24 0.23-0.33 0.32-0.37 0.49-0.05 0.19-0.05 0.65-0.03 1.05l-0.84 0.85-0.92-0.92c0.62-0.94 0.07-1.92-0.71-2.55-0.34-0.27-1.04-0.62-1.69-0.74q-0.57-0.11-1.01 0.01c-0.41 0.12-0.53 0.23-0.64 0.64q-0.13 0.45-0.02 1.01c0.12 0.66 0.47 1.36 0.75 1.7 0.62 0.78 1.61 1.33 2.54 0.71l0.93 0.92-2.64 2.66c-0.16 0.15-0.24 0.32-0.13 0.5 0.01 0.02 0.33 0.33 0.35 0.35 0.19 0.14 0.36 0.06 0.52-0.11l2.67-2.64 2.63 2.62c0.16 0.16 0.32 0.23 0.5 0.12 0.02-0.01 0.34-0.32 0.36-0.35zm-11-10.58c-0.12 0-0.15-0.15 0-0.28l4.35-4.05h6.78l4.35 4.05c0.16 0.13 0.12 0.28 0 0.28zm1.32-3.74h1.95l-3.3 3.09-0.04-1.8c-0.06-0.84 0.54-1.31 1.39-1.29zm14.23 1.29l-0.04 1.8-3.3-3.09h1.96c0.85-0.02 1.44 0.45 1.38 1.29zm-9.84-0.13c0 0.02 0 0.53 0 0.55h4.06c0-0.02 0-0.53 0-0.55 0-0.18-0.14-0.33-0.33-0.33h-3.4c-0.18 0-0.33 0.15-0.33 0.33z"/>
					<path class="s2" d="m12.07 31.23h1.26 0.08v0.08 2 0.05l-0.05 0.02q-0.06 0.03-0.14 0.05-0.06 0.01-0.16 0.04-0.17 0.04-0.39 0.07-0.1 0.02-0.21 0.03-0.11 0-0.23 0.01-0.44 0-0.8-0.12-0.16-0.06-0.33-0.16-0.15-0.09-0.28-0.22-0.09-0.09-0.16-0.19-0.07-0.1-0.13-0.22-0.06-0.11-0.11-0.24-0.05-0.13-0.08-0.27-0.03-0.14-0.05-0.29-0.01-0.15-0.01-0.31 0-0.2 0.02-0.38 0.03-0.18 0.08-0.35 0.05-0.16 0.12-0.31 0.08-0.13 0.17-0.27 0.09-0.12 0.2-0.23 0.12-0.1 0.24-0.19 0.14-0.09 0.27-0.15 0.15-0.06 0.3-0.11 0.15-0.04 0.32-0.06 0.16-0.02 0.33-0.02 0.1 0 0.19 0 0.1 0.01 0.19 0.02 0.08 0.01 0.16 0.03 0.09 0.01 0.15 0.03 0.07 0.01 0.13 0.04 0.06 0.02 0.12 0.05l0.05 0.02-0.01 0.07-0.16 0.61-0.02 0.09-0.09-0.04q-0.04-0.01-0.09-0.04-0.04-0.01-0.09-0.03-0.05-0.02-0.11-0.02-0.04-0.02-0.12-0.02-0.06-0.01-0.14-0.02-0.06 0-0.15 0-0.12-0.01-0.24 0.02-0.1 0.02-0.21 0.05-0.1 0.04-0.19 0.1-0.09 0.05-0.16 0.13-0.08 0.08-0.14 0.17-0.06 0.1-0.1 0.22-0.05 0.12-0.06 0.27-0.03 0.14-0.03 0.31 0 0.16 0.02 0.3 0.03 0.14 0.06 0.26 0.04 0.12 0.1 0.22 0.05 0.09 0.12 0.17 0.08 0.08 0.15 0.14 0.08 0.05 0.17 0.09 0.1 0.04 0.2 0.06 0.11 0.02 0.21 0.02 0.08 0 0.12 0 0.06-0.01 0.11-0.01 0.04-0.01 0.07-0.02v-0.81h-0.47-0.08v-0.08-0.58-0.08zm3.51-0.69q0.01 0 0.04 0l0.06 0.02v0.06 0.71 0.09l-0.09-0.01q-0.03 0-0.04-0.01-0.02 0-0.04 0-0.03 0-0.05-0.01-0.02 0-0.05 0-0.08 0-0.14 0.02-0.06 0.02-0.12 0.05-0.06 0.03-0.1 0.08-0.05 0.05-0.08 0.12-0.03 0.06-0.05 0.15-0.02 0.1-0.02 0.2v1.45 0.08h-0.08-0.74-0.08v-0.08-1.92q0-0.15 0-0.25 0-0.11-0.01-0.22 0-0.1 0-0.21-0.01-0.1-0.01-0.19v-0.08h0.08 0.63 0.08v0.07l0.02 0.23q0.03-0.04 0.08-0.09 0.06-0.07 0.12-0.12 0.07-0.05 0.15-0.08 0.08-0.04 0.14-0.05 0.08-0.03 0.16-0.02 0.01 0 0.05 0 0.02 0 0.04 0 0.02 0 0.05 0.01zm2.71 1q0.01 0.11 0.01 0.23v1.03q0 0.07 0 0.12 0 0.05 0 0.11 0.01 0.06 0.01 0.12 0 0.05 0.01 0.11 0 0.04 0.01 0.09 0 0.06 0.01 0.09l0.02 0.1h-0.1-0.67-0.06l-0.01-0.07-0.03-0.14q-0.05 0.05-0.1 0.09h-0.01q-0.06 0.04-0.13 0.07-0.06 0.03-0.14 0.06-0.08 0.01-0.15 0.03-0.09 0.01-0.17 0.01-0.21 0-0.38-0.07-0.08-0.04-0.15-0.09-0.07-0.05-0.14-0.11-0.06-0.07-0.1-0.14-0.05-0.07-0.08-0.16-0.03-0.08-0.05-0.17-0.01-0.07-0.01-0.18 0-0.14 0.03-0.26 0.03-0.14 0.09-0.24 0.06-0.11 0.15-0.2 0.09-0.09 0.19-0.16 0.12-0.06 0.24-0.12 0.12-0.05 0.27-0.08 0.15-0.03 0.3-0.05 0.12-0.01 0.25-0.02-0.01-0.01-0.01-0.03 0-0.06-0.02-0.11-0.02-0.04-0.05-0.07-0.03-0.03-0.07-0.06-0.05-0.02-0.11-0.04-0.07-0.01-0.16-0.01-0.09 0-0.18 0.01-0.09 0.01-0.17 0.04-0.09 0.02-0.16 0.06-0.07 0.03-0.13 0.07l-0.09 0.05-0.03-0.1-0.14-0.48-0.02-0.06 0.05-0.03q0.05-0.03 0.12-0.06 0.06-0.03 0.13-0.06 0.08-0.02 0.16-0.05 0.09-0.02 0.18-0.04 0.1-0.01 0.2-0.03 0.1-0.01 0.22-0.01 0.17 0 0.31 0.03 0.14 0.03 0.26 0.08 0.11 0.05 0.21 0.12 0.09 0.07 0.16 0.16 0.06 0.08 0.11 0.18 0.05 0.1 0.08 0.22 0.03 0.1 0.04 0.22zm-0.88 1.07q0.01-0.06 0.01-0.11v-0.32q-0.03 0-0.06 0-0.08 0.01-0.14 0.02-0.07 0.02-0.13 0.03-0.06 0.01-0.11 0.04-0.06 0.02-0.09 0.06-0.04 0.03-0.07 0.07-0.03 0.03-0.04 0.08-0.02 0.06-0.02 0.12 0 0.06 0.02 0.1 0 0.05 0.02 0.08 0.02 0.03 0.05 0.05 0.02 0.03 0.05 0.04 0.06 0.03 0.13 0.03 0.03 0 0.06 0 0.03-0.01 0.07-0.02 0.03-0.01 0.06-0.03 0.03-0.01 0.06-0.04 0.03-0.02 0.06-0.05 0.02-0.03 0.04-0.07 0.01-0.04 0.03-0.08zm2.42-3.18v1.36l0.01-0.01q0.09-0.08 0.2-0.14 0.11-0.05 0.23-0.08 0.12-0.03 0.27-0.03 0.12 0 0.23 0.03 0.12 0.03 0.22 0.08 0.1 0.06 0.19 0.13 0.09 0.07 0.16 0.18 0.07 0.1 0.13 0.22 0.06 0.11 0.09 0.25 0.04 0.13 0.06 0.28 0.02 0.15 0.02 0.31 0 0.15-0.02 0.3-0.01 0.14-0.04 0.26-0.04 0.14-0.08 0.24-0.05 0.11-0.11 0.21-0.06 0.09-0.12 0.17-0.08 0.08-0.15 0.14-0.07 0.08-0.16 0.12-0.09 0.05-0.17 0.08-0.09 0.03-0.18 0.04-0.1 0.03-0.19 0.02-0.12 0-0.24-0.03-0.12-0.02-0.22-0.08-0.11-0.06-0.2-0.15-0.03-0.02-0.04-0.05l-0.02 0.18-0.01 0.08h-0.07-0.63-0.08v-0.09q0-0.05 0-0.11 0.01-0.06 0.01-0.12v-0.14l0.01-0.14q0-0.12 0-0.29v-3.22-0.08h0.08 0.74 0.08zm0.01 2.25q-0.01 0.06-0.01 0.12v0.54q0 0.08 0.01 0.14 0.02 0.06 0.05 0.12 0.01 0.06 0.06 0.1 0.03 0.04 0.08 0.08 0.06 0.03 0.1 0.04 0.06 0.02 0.12 0.02 0.08 0 0.14-0.02 0.06-0.03 0.12-0.07 0.04-0.04 0.09-0.11 0.04-0.06 0.07-0.15 0.03-0.09 0.05-0.2 0.02-0.12 0.02-0.25-0.01-0.08-0.01-0.16-0.02-0.07-0.03-0.15-0.01-0.07-0.04-0.13-0.02-0.06-0.05-0.12-0.04-0.05-0.07-0.08-0.04-0.04-0.08-0.07-0.04-0.03-0.1-0.04-0.05-0.01-0.11-0.01-0.04 0-0.08 0.01-0.04 0-0.07 0.02-0.04 0.02-0.07 0.05-0.04 0.01-0.07 0.06-0.03 0.03-0.05 0.07-0.03 0.04-0.04 0.09-0.02 0.05-0.03 0.1zm3.24 0.25v1.53 0.08h-0.08-0.75-0.08v-0.08-3.85-0.08h0.08 2.07 0.08v0.08 0.62 0.08h-0.08-1.24v0.85h1.15 0.08v0.08 0.61 0.08h-0.08zm2.56-1.3q0.25-0.1 0.55-0.1 0.16 0 0.3 0.03 0.14 0.02 0.26 0.08 0.13 0.06 0.23 0.13 0.11 0.09 0.2 0.18 0.09 0.11 0.16 0.23 0.06 0.12 0.11 0.25 0.04 0.14 0.07 0.29 0.02 0.15 0.02 0.32 0.01 0.16-0.02 0.31-0.01 0.15-0.06 0.27-0.03 0.13-0.09 0.24-0.06 0.11-0.12 0.2-0.08 0.09-0.15 0.17-0.08 0.08-0.17 0.13-0.09 0.06-0.18 0.11-0.1 0.04-0.19 0.07-0.11 0.02-0.2 0.04-0.1 0.01-0.2 0.01-0.15 0-0.28-0.03-0.14-0.02-0.27-0.07-0.12-0.06-0.23-0.13-0.12-0.08-0.2-0.17-0.1-0.1-0.17-0.22-0.08-0.12-0.12-0.26-0.05-0.15-0.07-0.3-0.03-0.16-0.03-0.34 0-0.18 0.03-0.34 0.02-0.16 0.08-0.31 0.04-0.14 0.12-0.26 0.08-0.13 0.17-0.22 0.09-0.11 0.21-0.18 0.1-0.07 0.24-0.13zm0.96 1.76q0.03-0.16 0.03-0.34 0-0.08-0.01-0.15 0-0.07-0.02-0.16-0.02-0.06-0.03-0.14-0.03-0.06-0.05-0.12-0.03-0.06-0.07-0.11-0.03-0.04-0.08-0.07-0.03-0.03-0.09-0.05-0.05-0.02-0.1-0.02-0.06 0-0.1 0.02-0.05 0-0.08 0.03-0.04 0.02-0.07 0.05-0.03 0.03-0.06 0.07-0.03 0.03-0.05 0.08-0.03 0.05-0.05 0.1-0.02 0.06-0.03 0.11-0.02 0.06-0.02 0.12-0.01 0.06-0.02 0.13 0 0.06 0 0.12 0 0.09 0.01 0.17 0 0.09 0.02 0.16 0.03 0.07 0.04 0.15 0.03 0.06 0.06 0.12 0.03 0.06 0.07 0.1 0.03 0.03 0.08 0.07 0.04 0.03 0.09 0.04 0.04 0.02 0.1 0.02 0.06 0 0.1-0.02 0.04-0.01 0.09-0.04 0.04-0.04 0.08-0.07 0.03-0.05 0.06-0.1 0.03-0.06 0.06-0.13 0.02-0.06 0.04-0.14zm2.13-1.76q0.26-0.1 0.56-0.1 0.15 0 0.29 0.03 0.13 0.02 0.27 0.08 0.12 0.06 0.23 0.13 0.11 0.09 0.2 0.18 0.08 0.11 0.15 0.23 0.07 0.12 0.12 0.25 0.04 0.14 0.06 0.29 0.03 0.15 0.03 0.32 0 0.16-0.02 0.31-0.03 0.15-0.06 0.27-0.05 0.13-0.09 0.24-0.06 0.11-0.13 0.2-0.06 0.09-0.14 0.17-0.09 0.08-0.17 0.13-0.09 0.06-0.18 0.11-0.1 0.04-0.2 0.07-0.09 0.02-0.2 0.04-0.1 0.01-0.19 0.01-0.15 0-0.29-0.03-0.14-0.02-0.26-0.07-0.13-0.06-0.24-0.13-0.11-0.08-0.2-0.17-0.09-0.1-0.16-0.22-0.08-0.12-0.12-0.26-0.06-0.15-0.08-0.3-0.02-0.16-0.02-0.34 0-0.18 0.02-0.34 0.03-0.16 0.08-0.31 0.06-0.14 0.13-0.26 0.07-0.13 0.16-0.22 0.1-0.11 0.21-0.18 0.12-0.07 0.24-0.13zm0.96 1.76q0.04-0.16 0.04-0.34 0-0.08-0.01-0.15 0-0.07-0.02-0.16-0.01-0.06-0.04-0.14-0.02-0.06-0.05-0.12-0.03-0.06-0.06-0.11-0.04-0.04-0.08-0.07-0.05-0.03-0.09-0.05-0.05-0.02-0.11-0.02-0.04 0-0.09 0.02-0.05 0-0.08 0.03-0.04 0.02-0.08 0.05-0.03 0.03-0.06 0.07-0.02 0.03-0.05 0.08-0.02 0.05-0.04 0.1-0.02 0.06-0.03 0.11-0.02 0.06-0.03 0.12-0.01 0.06-0.01 0.13 0 0.06 0 0.12 0 0.09 0 0.17 0.02 0.09 0.03 0.16 0.01 0.07 0.04 0.15 0.02 0.06 0.06 0.12 0.03 0.06 0.06 0.1 0.05 0.03 0.08 0.07 0.04 0.03 0.09 0.04 0.06 0.02 0.11 0.02 0.05 0 0.1-0.02 0.05-0.01 0.08-0.04 0.05-0.04 0.08-0.07 0.04-0.05 0.07-0.1 0.03-0.06 0.05-0.13 0.03-0.06 0.04-0.14zm3.19-3.04h0.74 0.08v0.08 3.23q0 0.1 0 0.14 0 0.07 0 0.14 0 0.08 0 0.14 0.01 0.07 0.01 0.14 0 0.12 0.01 0.23v0.09h-0.08-0.65-0.08v-0.08l-0.02-0.19q-0.05 0.04-0.09 0.09-0.07 0.06-0.14 0.1-0.07 0.04-0.16 0.07-0.08 0.02-0.17 0.05-0.08 0-0.18 0.01-0.13 0-0.24-0.03-0.12-0.03-0.23-0.08-0.11-0.06-0.2-0.14-0.09-0.08-0.17-0.18-0.07-0.1-0.13-0.22-0.07-0.12-0.1-0.25h-0.01q-0.03-0.14-0.06-0.29-0.02-0.15-0.02-0.32 0-0.18 0.03-0.34 0.02-0.17 0.07-0.31 0.05-0.14 0.11-0.27 0.06-0.12 0.15-0.22 0.08-0.1 0.18-0.17 0.09-0.09 0.2-0.13 0.11-0.06 0.23-0.08 0.12-0.03 0.24-0.03 0.09 0 0.16 0.01 0.09 0.01 0.16 0.04 0.06 0.02 0.13 0.05 0.06 0.03 0.12 0.08 0.02 0 0.03 0.02v-1.3-0.08zm-0.09 3.1q0-0.06 0.01-0.14v-0.51q-0.01-0.07-0.01-0.13-0.02-0.06-0.03-0.1-0.02-0.06-0.04-0.09-0.03-0.05-0.05-0.08-0.03-0.03-0.07-0.05-0.03-0.03-0.06-0.04-0.08-0.03-0.15-0.03-0.06 0-0.12 0.01-0.04 0.02-0.09 0.04-0.05 0.03-0.08 0.07-0.04 0.04-0.07 0.1-0.03 0.05-0.06 0.11-0.02 0.06-0.04 0.14-0.02 0.07-0.02 0.15-0.01 0.08-0.01 0.17 0 0.13 0.01 0.23 0.02 0.1 0.05 0.19 0.03 0.09 0.07 0.15 0.04 0.06 0.1 0.11 0.05 0.04 0.11 0.06 0.06 0.03 0.14 0.03 0.04-0.01 0.07-0.01 0.03-0.01 0.07-0.02 0.04-0.01 0.07-0.04 0.03-0.02 0.06-0.05h0.01q0.02-0.03 0.05-0.07 0.03-0.03 0.05-0.08v-0.01q0.01-0.05 0.03-0.11z"/>
				</g>
			</g>
		</g>
	</g>
</svg>